<svg width="196" height="99" viewBox="0 0 196 99" fill="none" xmlns="http://www.w3.org/2000/svg">
<g clip-path="url(#clip0_9_332)">
<path d="M24.7258 74.4959C87.3747 78.9228 141.831 61.8602 191.487 24.8288C186.1 21.9858 183.211 24.6969 180.863 26.3501C162.556 38.3193 142.077 45.7262 121.865 53.2653C92.7517 64.1772 62.6294 66.6253 31.7368 64.7094C30.4018 64.7095 29.1367 64.2467 26.2052 63.4534C39.1399 56.1131 54.5582 56.3106 64.7714 46.7884C64.3093 46.0611 63.9825 45.0692 63.5203 44.3419C54.2919 46.7228 44.8626 49.1699 35.5688 51.3524C26.275 53.535 17.1165 55.4531 7.88802 57.834C1.13354 59.6197 -0.630822 63.7193 3.73854 68.8767C9.29828 75.6209 15.8663 81.3732 22.0982 87.4561C22.7611 88.1173 23.69 88.9108 24.6236 89.043C27.0929 89.1089 29.3662 88.5799 31.9709 88.3814C31.7188 86.2655 32.0035 83.7528 31.2145 82.0336C30.0288 79.7855 27.9702 78.2648 24.7258 74.4959Z" fill="white"/>
</g>
<defs>
<clipPath id="clip0_9_332">
<rect width="193" height="40" fill="white" transform="matrix(-0.949775 0.312933 0.312933 0.949775 183.307 0)"/>
</clipPath>
</defs>
</svg>
