<svg width="147" height="150" viewBox="0 0 147 150" fill="none" xmlns="http://www.w3.org/2000/svg">
<g clip-path="url(#clip0_3_204)">
<path d="M0 2.68619C7.4095 -1.39249 14.8191 -0.104487 21.4621 1.82752C30.66 4.61819 39.6025 8.26753 47.7785 12.5609C84.826 33.1689 107.054 62.5783 116.252 98.8571C118.552 108.088 119.318 117.748 120.851 128.266C131.071 123.329 136.437 113.669 146.657 108.088C147.934 112.381 145.379 115.172 143.335 117.533C134.904 127.193 126.217 136.853 117.274 146.299C112.931 150.807 109.609 151.236 105.01 147.372C95.3015 139.429 89.425 129.769 87.6365 118.606C87.6365 118.177 88.403 117.533 89.4249 116.46C100.411 118.821 97.8564 130.628 107.31 134.921C111.398 120.109 108.332 105.941 103.733 92.2024C98.8785 77.8197 92.491 64.081 82.271 51.845C72.3065 39.8236 59.787 30.1636 45.99 21.1476C32.4485 11.9169 17.1185 6.12087 0 2.68619Z" fill="white"/>
</g>
<defs>
<clipPath id="clip0_3_204">
<rect width="147" height="150" fill="white"/>
</clipPath>
</defs>
</svg>
