<svg width="578" height="178" viewBox="0 0 578 178" fill="none" xmlns="http://www.w3.org/2000/svg">
<g clip-path="url(#clip0_3_159)">
<path d="M1.6256 161.301C17.553 162.586 33.4805 163.871 52.3943 165.37C49.9057 162.586 48.4125 160.658 45.9239 158.731C-2.85395 117.825 12.5757 74.1344 87.2356 40.9383C135.516 19.7356 195.244 8.81305 261.94 2.81633C336.6 -3.82289 407.775 1.74549 476.463 14.5956C511.802 21.2348 539.177 32.1574 562.57 45.0075C568.543 48.4342 574.018 51.8609 578 56.5726C573.023 55.2876 567.05 54.2168 564.064 52.2892C486.915 6.24302 304.247 -4.67957 172.348 25.5182C120.584 37.2975 81.7606 54.6451 58.3672 77.7753C30.9919 104.975 42.4397 140.741 86.2402 163.014C95.1993 153.377 87.2356 140.955 112.62 133.245C111.625 146.952 111.127 159.373 110.131 171.581C109.634 175.65 104.656 178.863 95.6971 177.792C64.8377 174.365 34.476 170.51 4.61203 166.441C2.6211 166.227 1.62559 164.299 0.132389 163.229C-0.365344 162.8 0.630137 161.943 1.6256 161.301Z" fill="white"/>
</g>
<defs>
<clipPath id="clip0_3_159">
<rect width="578" height="178" fill="white"/>
</clipPath>
</defs>
</svg>
