<svg width="189" height="208" viewBox="0 0 189 208" fill="none" xmlns="http://www.w3.org/2000/svg">
<g clip-path="url(#clip0_3_186)">
<path d="M0 3.72485C9.52649 -1.93091 19.0531 -0.144888 27.5941 2.53416C39.4201 6.40389 50.9175 11.4643 61.4295 17.4177C109.062 45.9942 137.641 86.7753 149.467 137.082C152.424 149.882 153.409 163.277 155.38 177.863C168.52 171.016 175.419 157.621 188.559 149.882C190.201 155.835 186.916 159.705 184.288 162.979C173.448 176.375 162.279 189.77 150.781 202.867C145.197 209.118 140.926 209.714 135.013 204.356C122.53 193.342 114.975 179.947 112.675 164.468C112.675 163.872 113.661 162.979 114.975 161.491C129.1 164.765 125.815 181.137 137.97 187.091C143.226 166.551 139.284 146.905 133.371 127.854C127.129 107.91 118.917 88.859 105.777 71.8917C92.9655 55.2221 76.869 41.8268 59.13 29.3246C41.7195 16.5247 22.0095 8.4876 0 3.72485Z" fill="white"/>
</g>
<defs>
<clipPath id="clip0_3_186">
<rect width="189" height="208" fill="white"/>
</clipPath>
</defs>
</svg>
