<svg width="187" height="148" viewBox="0 0 187 148" fill="none" xmlns="http://www.w3.org/2000/svg">
<g clip-path="url(#clip0_9_334)">
<path d="M160.142 105.81C155.352 108.105 151.065 109.965 146.959 111.932C132.62 118.349 117.952 119.931 102.546 115.707C91.4168 112.546 82.9716 106.089 78.6861 95.4991C74.4007 84.9094 70.9064 73.8109 67.1983 63.0743C65.3069 57.5618 63.8858 52.0832 61.8874 46.7516C58.0829 37.4227 53.176 34.5221 43.0512 34.6404C30.9378 34.8037 20.0637 40.3382 10.6106 51.3513C5.51154 47.1164 7.71471 42.5595 10.8692 39.2975C14.7402 35.2383 19.2634 31.3205 24.1605 28.8444C29.7419 26.0404 36.125 23.9545 42.2299 23.1689C57.6901 21.0777 67.7925 26.8055 73.8093 41.1041C77.3895 49.5679 79.5264 58.3992 82.5292 67.01C85.2007 74.9367 88.0539 82.9708 91.1959 90.9315C93.5256 96.9472 98.1864 100.679 104.173 102.997C113.389 106.492 122.54 106.775 132.174 104.169C134.195 103.655 136.034 103.033 137.98 102.23C146.341 98.872 154.702 95.5141 163.748 91.8283C150.405 87.8474 138.079 84.2228 125.571 80.4907C125.389 80.3833 125.378 79.1564 125.261 78.1104C126.416 77.8165 127.709 76.8724 128.65 76.9403C141.715 78.0717 154.994 78.8412 167.887 81.092C177.883 82.8508 181.293 88.2843 178.554 97.8955C176.276 106.314 172.329 114.235 168.308 121.867C167.42 123.784 163.165 125.174 160.92 124.823C159.508 124.722 157.52 120.617 157.574 118.452C157.468 114.483 158.955 110.723 160.142 105.81Z" fill="white"/>
</g>
<defs>
<clipPath id="clip0_9_334">
<rect width="178" height="66" fill="white" transform="translate(33.5856) rotate(30.5887)"/>
</clipPath>
</defs>
</svg>
